<svg viewBox="0 0 48 48" fill="none" xmlns="http://www.w3.org/2000/svg">
<rect width="48" height="48" rx="2" fill="#E1877A"/>
<path d="M20.9964 36.0917V27.7583H27.6631V36.0917C27.6631 37.0083 28.4131 37.7583 29.3298 37.7583H34.3298C35.2464 37.7583 35.9964 37.0083 35.9964 36.0917V24.425H38.8298C39.5964 24.425 39.9631 23.475 39.3798 22.975L25.4464 10.425C24.8131 9.85833 23.8464 9.85833 23.2131 10.425L9.27975 22.975C8.71309 23.475 9.06309 24.425 9.82975 24.425H12.6631V36.0917C12.6631 37.0083 13.4131 37.7583 14.3298 37.7583H19.3298C20.2464 37.7583 20.9964 37.0083 20.9964 36.0917Z" fill="white"/>
</svg>
