<svg viewBox="0 0 612 148" fill="none" xmlns="http://www.w3.org/2000/svg">
<path d="M37.9761 73.2C37.9761 67.6533 39.2135 62.9173 41.6881 58.992C44.1628 55.0667 47.4055 52.08 51.4161 50.032C55.5121 47.984 59.9921 46.96 64.8561 46.96C69.1228 46.96 72.8775 47.5147 76.1201 48.624C79.3628 49.648 82.2641 51.0987 84.8242 52.976C87.3841 54.768 89.6455 56.688 91.6081 58.736V35.44C88.0241 32.624 84.0988 30.4053 79.8321 28.784C75.5655 27.1627 70.1468 26.352 63.5761 26.352C56.4081 26.352 49.7948 27.4613 43.7361 29.68C37.6775 31.8987 32.4721 35.0987 28.1201 39.28C23.7681 43.4613 20.3975 48.4107 18.0081 54.128C15.6188 59.8453 14.4241 66.2027 14.4241 73.2C14.4241 80.1973 15.6188 86.5547 18.0081 92.272C20.3975 97.9893 23.7681 102.939 28.1201 107.12C32.4721 111.301 37.6775 114.501 43.7361 116.72C49.7948 118.939 56.4081 120.048 63.5761 120.048C70.1468 120.048 75.5655 119.237 79.8321 117.616C84.0988 115.995 88.0241 113.776 91.6081 110.96V87.664C89.6455 89.712 87.3841 91.632 84.8242 93.424C82.2641 95.216 79.3628 96.6667 76.1201 97.776C72.8775 98.8853 69.1228 99.44 64.8561 99.44C59.9921 99.44 55.5121 98.416 51.4161 96.368C47.4055 94.32 44.1628 91.3333 41.6881 87.408C39.2135 83.3973 37.9761 78.6613 37.9761 73.2ZM107.356 90.458H157.176V76.17H107.356V90.458ZM147.118 52.2V118H163.004V52.2H147.118ZM102.938 52.2V118H118.824V52.2H102.938ZM184.543 118H217.725V104.934H184.543V118ZM184.543 65.266H217.725V52.2H184.543V65.266ZM184.543 89.8H215.845V77.016H184.543V89.8ZM174.015 52.2V118H189.243V52.2H174.015ZM238.361 118H271.543V104.934H238.361V118ZM238.361 65.266H271.543V52.2H238.361V65.266ZM238.361 89.8H269.663V77.016H238.361V89.8ZM227.833 52.2V118H243.061V52.2H227.833ZM298.102 88.202L316.526 118H335.138L314.552 88.202H298.102ZM281.652 52.2V118H297.538V52.2H281.652ZM291.616 65.642H304.494C306.625 65.642 308.442 65.9867 309.946 66.676C311.513 67.3653 312.703 68.368 313.518 69.684C314.333 70.9373 314.74 72.4727 314.74 74.29C314.74 76.1073 314.333 77.674 313.518 78.99C312.703 80.2433 311.513 81.2147 309.946 81.904C308.442 82.5307 306.625 82.844 304.494 82.844H291.616V95.158H305.622C311.262 95.158 315.962 94.2493 319.722 92.432C323.482 90.6147 326.333 88.108 328.276 84.912C330.219 81.6533 331.19 77.9247 331.19 73.726C331.19 69.4647 330.219 65.736 328.276 62.54C326.333 59.2813 323.482 56.7433 319.722 54.926C315.962 53.1087 311.262 52.2 305.622 52.2H291.616V65.642ZM378.773 81.904L356.885 28.4H331.669L378.773 123.632L426.005 28.4H400.661L378.773 81.904ZM438.264 85.1C438.264 81.2147 439.016 77.7993 440.52 74.854C442.087 71.846 444.249 69.496 447.006 67.804C449.826 66.112 453.116 65.266 456.876 65.266C460.699 65.266 463.989 66.112 466.746 67.804C469.504 69.496 471.634 71.846 473.138 74.854C474.642 77.7993 475.394 81.2147 475.394 85.1C475.394 88.9853 474.611 92.432 473.044 95.44C471.54 98.3853 469.378 100.704 466.558 102.396C463.801 104.088 460.574 104.934 456.876 104.934C453.116 104.934 449.826 104.088 447.006 102.396C444.249 100.704 442.087 98.3853 440.52 95.44C439.016 92.432 438.264 88.9853 438.264 85.1ZM421.438 85.1C421.438 90.176 422.284 94.8447 423.976 99.106C425.731 103.367 428.175 107.065 431.308 110.198C434.504 113.331 438.264 115.775 442.588 117.53C446.912 119.222 451.675 120.068 456.876 120.068C462.015 120.068 466.746 119.222 471.07 117.53C475.394 115.775 479.123 113.331 482.256 110.198C485.452 107.065 487.896 103.367 489.588 99.106C491.343 94.8447 492.22 90.176 492.22 85.1C492.22 80.024 491.343 75.3867 489.588 71.188C487.834 66.9893 485.358 63.3547 482.162 60.284C478.966 57.2133 475.206 54.8633 470.882 53.234C466.621 51.542 461.952 50.696 456.876 50.696C451.863 50.696 447.194 51.542 442.87 53.234C438.546 54.8633 434.786 57.2133 431.59 60.284C428.394 63.3547 425.888 66.9893 424.07 71.188C422.316 75.3867 421.438 80.024 421.438 85.1ZM492.974 66.394H511.022V118H526.908V66.394H545.05V52.2H492.974V66.394ZM562.773 118H595.955V104.934H562.773V118ZM562.773 65.266H595.955V52.2H562.773V65.266ZM562.773 89.8H594.075V77.016H562.773V89.8ZM552.245 52.2V118H567.473V52.2H552.245Z" fill="#2A597C"/>
</svg>
