<svg viewBox="0 0 38 38" fill="none" xmlns="http://www.w3.org/2000/svg">
<path d="M32.2958 28.394C31.9847 26.2028 31.3663 24.3826 30.4403 22.9336C29.5143 21.4846 28.2102 20.6469 26.5279 20.4208C25.5807 21.4669 24.4533 22.2833 23.1456 22.87C21.838 23.4567 20.4561 23.75 19 23.75C17.5439 23.75 16.162 23.4567 14.8544 22.87C13.5467 22.2833 12.4193 21.4669 11.4721 20.4208C9.78981 20.6469 8.48568 21.4846 7.55971 22.9336C6.63374 24.3826 6.01525 26.2028 5.70424 28.394C7.20275 30.5145 9.1183 32.1933 11.4509 33.4302C13.7835 34.6672 16.2999 35.2857 19 35.2857C21.7001 35.2857 24.2165 34.6672 26.5491 33.4302C28.8817 32.1933 30.7972 30.5145 32.2958 28.394ZM27.1429 13.5714C27.1429 11.3237 26.3477 9.40458 24.7573 7.81417C23.1669 6.22377 21.2478 5.42857 19 5.42857C16.7522 5.42857 14.8331 6.22377 13.2427 7.81417C11.6523 9.40458 10.8571 11.3237 10.8571 13.5714C10.8571 15.8192 11.6523 17.7383 13.2427 19.3287C14.8331 20.9191 16.7522 21.7143 19 21.7143C21.2478 21.7143 23.1669 20.9191 24.7573 19.3287C26.3477 17.7383 27.1429 15.8192 27.1429 13.5714ZM38 19C38 21.5729 37.4981 24.0292 36.4944 26.3689C35.4907 28.7085 34.1442 30.7301 32.4548 32.4336C30.7654 34.1371 28.7474 35.4907 26.4007 36.4944C24.0539 37.4981 21.5871 38 19 38C16.4271 38 13.9673 37.4981 11.6205 36.4944C9.27381 35.4907 7.25223 34.1406 5.5558 32.4442C3.85937 30.7478 2.5093 28.7262 1.50558 26.3795C0.50186 24.0327 0 21.5729 0 19C0 16.4271 0.50186 13.9673 1.50558 11.6205C2.5093 9.27381 3.85937 7.25223 5.5558 5.5558C7.25223 3.85937 9.27381 2.5093 11.6205 1.50558C13.9673 0.50186 16.4271 0 19 0C21.5729 0 24.0327 0.50186 26.3795 1.50558C28.7262 2.5093 30.7478 3.85937 32.4442 5.5558C34.1406 7.25223 35.4907 9.27381 36.4944 11.6205C37.4981 13.9673 38 16.4271 38 19Z" fill="#2A597C"/>
</svg>
